<svg width="18" height="18" viewBox="0 0 18 18" fill="none" xmlns="http://www.w3.org/2000/svg">
<path d="M13.5 1.8H17.1C17.3387 1.8 17.5676 1.89482 17.7364 2.0636C17.9052 2.23239 18 2.46131 18 2.7V17.1C18 17.3387 17.9052 17.5676 17.7364 17.7364C17.5676 17.9052 17.3387 18 17.1 18H0.9C0.661305 18 0.432387 17.9052 0.263604 17.7364C0.0948211 17.5676 0 17.3387 0 17.1V2.7C0 2.46131 0.0948211 2.23239 0.263604 2.0636C0.432387 1.89482 0.661305 1.8 0.9 1.8H4.5V0H6.3V1.8H11.7V0H13.5V1.8ZM1.8 7.2V16.2H16.2V7.2H1.8ZM3.6 9H5.4V10.8H3.6V9ZM8.1 9H9.9V10.8H8.1V9ZM12.6 9H14.4V10.8H12.6V9Z" fill="#B0ACA6"/>
</svg>
