<svg width="9" height="10" viewBox="0 0 9 10" fill="none" xmlns="http://www.w3.org/2000/svg">
<path d="M6.9138 6.91376L4.05 9.77757L1.1862 6.91376C0.619804 6.34736 0.234084 5.62572 0.0778178 4.8401C-0.0784483 4.05448 0.00175808 3.24016 0.308294 2.50012C0.614831 1.76008 1.13393 1.12756 1.79995 0.682545C2.46597 0.237527 3.24899 0 4.05 0C4.85101 0 5.63404 0.237527 6.30006 0.682545C6.96607 1.12756 7.48517 1.76008 7.79171 2.50012C8.09824 3.24016 8.17845 4.05448 8.02218 4.8401C7.86592 5.62572 7.4802 6.34736 6.9138 6.91376ZM4.05 5.84997C4.52739 5.84997 4.98523 5.66032 5.32279 5.32276C5.66036 4.98519 5.85 4.52735 5.85 4.04997C5.85 3.57258 5.66036 3.11474 5.32279 2.77717C4.98523 2.43961 4.52739 2.24996 4.05 2.24996C3.57261 2.24996 3.11477 2.43961 2.77721 2.77717C2.43964 3.11474 2.25 3.57258 2.25 4.04997C2.25 4.52735 2.43964 4.98519 2.77721 5.32276C3.11477 5.66032 3.57261 5.84997 4.05 5.84997Z" fill="#525866"/>
</svg>
