<svg width="15" height="16" viewBox="0 0 15 16" fill="none" xmlns="http://www.w3.org/2000/svg">
<path d="M13.5 11.25H15V12.75H0V11.25H1.5V6C1.5 4.4087 2.13214 2.88258 3.25736 1.75736C4.38258 0.632141 5.9087 0 7.5 0C9.0913 0 10.6174 0.632141 11.7426 1.75736C12.8679 2.88258 13.5 4.4087 13.5 6V11.25ZM12 11.25V6C12 4.80653 11.5259 3.66193 10.682 2.81802C9.83807 1.97411 8.69347 1.5 7.5 1.5C6.30653 1.5 5.16193 1.97411 4.31802 2.81802C3.47411 3.66193 3 4.80653 3 6V11.25H12ZM5.25 14.25H9.75V15.75H5.25V14.25Z" fill="#202833"/>
</svg>
