<svg width="14" height="16" viewBox="0 0 14 16" fill="none" xmlns="http://www.w3.org/2000/svg">
<path d="M2.25 5.25V4.5C2.25 3.30653 2.72411 2.16193 3.56802 1.31802C4.41193 0.474106 5.55653 0 6.75 0C7.94347 0 9.08807 0.474106 9.93198 1.31802C10.7759 2.16193 11.25 3.30653 11.25 4.5V5.25H12.75C12.9489 5.25 13.1397 5.32902 13.2803 5.46967C13.421 5.61032 13.5 5.80109 13.5 6V15C13.5 15.1989 13.421 15.3897 13.2803 15.5303C13.1397 15.671 12.9489 15.75 12.75 15.75H0.75C0.551088 15.75 0.360322 15.671 0.21967 15.5303C0.0790176 15.3897 0 15.1989 0 15V6C0 5.80109 0.0790176 5.61032 0.21967 5.46967C0.360322 5.32902 0.551088 5.25 0.75 5.25H2.25ZM12 6.75H1.5V14.25H12V6.75ZM6 11.049C5.71404 10.8839 5.49054 10.6291 5.36418 10.324C5.23782 10.0189 5.21565 9.68068 5.30111 9.36173C5.38657 9.04278 5.57489 8.76095 5.83686 8.55993C6.09882 8.35892 6.4198 8.24996 6.75 8.24996C7.0802 8.24996 7.40118 8.35892 7.66314 8.55993C7.92511 8.76095 8.11343 9.04278 8.19889 9.36173C8.28435 9.68068 8.26218 10.0189 8.13582 10.324C8.00946 10.6291 7.78596 10.8839 7.5 11.049V12.75H6V11.049ZM3.75 5.25H9.75V4.5C9.75 3.70435 9.43393 2.94129 8.87132 2.37868C8.30871 1.81607 7.54565 1.5 6.75 1.5C5.95435 1.5 5.19129 1.81607 4.62868 2.37868C4.06607 2.94129 3.75 3.70435 3.75 4.5V5.25Z" fill="#919396"/>
</svg>
