<svg width="15" height="14" viewBox="0 0 15 14" fill="none" xmlns="http://www.w3.org/2000/svg">
<path d="M2.25 0C1.89848 0 1.59412 0.244148 1.51786 0.587303L0.0178574 7.33733C0.00599243 7.39073 0 7.44525 0 7.5V12.75C0 13.1642 0.33579 13.5 0.75 13.5H14.25C14.6642 13.5 15 13.1642 15 12.75V7.5C15 7.44525 14.994 7.39073 14.9822 7.33733L13.4822 0.587303C13.4059 0.244148 13.1015 0 12.75 0H2.25ZM13.3151 6.75H9.75C9.75 7.99267 8.74267 9 7.5 9C6.25733 9 5.25 7.99267 5.25 6.75H1.68497L2.85163 1.5H12.1483L13.3151 6.75Z" fill="#B0ACA6"/>
</svg>
