<svg width="20" height="18" viewBox="0 0 20 18" fill="none" xmlns="http://www.w3.org/2000/svg">
<path d="M14.9022 15.0807C13.4844 15.9796 11.8031 16.5002 10.0002 16.5002C5.50669 16.5002 1.76838 13.267 0.984619 9.00019C1.34852 7.01904 2.34935 5.26077 3.76698 3.9455L1.1613 1.33983L2.33982 0.161316L18.839 16.6604L17.6605 17.839L14.9022 15.0807ZM4.94625 5.12477C3.83886 6.13348 3.03142 7.47269 2.68557 9.00019C3.4501 12.3768 6.47042 14.8335 10.0002 14.8335C11.333 14.8335 12.5933 14.4832 13.6868 13.8654L11.9966 12.1751C11.4185 12.5394 10.7339 12.7502 10.0002 12.7502C7.92907 12.7502 6.25014 11.0712 6.25014 9.00019C6.25014 8.26636 6.46089 7.58177 6.82518 7.00371L4.94625 5.12477ZM10.7615 10.94L8.0603 8.23886C7.96767 8.47469 7.9168 8.73144 7.9168 9.00019C7.9168 10.1508 8.84959 11.0835 10.0002 11.0835C10.2688 11.0835 10.5257 11.0326 10.7615 10.94ZM17.3389 12.8271L16.1466 11.6348C16.6932 10.8557 17.0961 9.96552 17.3147 9.00019C16.5502 5.62351 13.5298 3.16682 10.0002 3.16682C9.29525 3.16682 8.61067 3.2648 7.96033 3.44851L6.6453 2.13348C7.68431 1.72468 8.816 1.50016 10.0002 1.50016C14.4936 1.50016 18.2319 4.73329 19.0157 9.00019C18.7555 10.4165 18.1698 11.719 17.3389 12.8271ZM9.769 5.25717C9.84542 5.25252 9.9225 5.25016 10.0002 5.25016C12.0712 5.25016 13.7502 6.92909 13.7502 9.00019C13.7502 9.07777 13.7478 9.15486 13.7432 9.23127L9.769 5.25717Z" fill="#99A0AE"/>
</svg>
